<?xml version="1.0" encoding="utf-8"?>
<!-- Generator: Adobe Illustrator 16.0.0, SVG Export Plug-In . SVG Version: 6.00 Build 0)  -->
<!DOCTYPE svg PUBLIC "-//W3C//DTD SVG 1.1//EN" "http://www.w3.org/Graphics/SVG/1.1/DTD/svg11.dtd">
<svg version="1.1" xmlns="http://www.w3.org/2000/svg" xmlns:xlink="http://www.w3.org/1999/xlink" x="0px" y="0px" width="320px"
	 height="480px" viewBox="0 0 320 480" enable-background="new 0 0 320 480" xml:space="preserve">
<g id="Layer_1" display="none">
	<rect display="inline" stroke="#000000" stroke-miterlimit="10" width="320" height="480"/>
	<path display="inline" fill="#F06821" d="M-135.695,104.569c0,2.19,1.775,3.965,3.965,3.965h42.924c2.19,0,3.965-1.775,3.965-3.965
		V61.645c0-2.19-1.775-3.965-3.965-3.965h-42.924c-2.19,0-3.965,1.775-3.965,3.965V104.569z"/>
	<path display="inline" fill="#139E46" d="M-78.975,104.569c0,2.19,1.775,3.965,3.965,3.965h42.924c2.19,0,3.965-1.775,3.965-3.965
		V61.645c0-2.19-1.775-3.965-3.965-3.965H-75.01c-2.189,0-3.965,1.775-3.965,3.965V104.569z"/>
	<path display="inline" fill="#EEAA1C" d="M-135.695,161.29c0,2.19,1.775,3.965,3.965,3.965h42.924c2.19,0,3.965-1.775,3.965-3.965
		v-42.924c0-2.19-1.775-3.965-3.965-3.965h-42.924c-2.19,0-3.965,1.775-3.965,3.965V161.29z"/>
	<path display="inline" fill="#1674AC" d="M-78.975,161.29c0,2.19,1.775,3.965,3.965,3.965h42.924c2.19,0,3.965-1.775,3.965-3.965
		v-42.924c0-2.19-1.775-3.965-3.965-3.965H-75.01c-2.189,0-3.965,1.775-3.965,3.965V161.29z"/>
	<path display="inline" fill="#FF3641" d="M-135.695,218.011c0,2.19,1.775,3.965,3.965,3.965h42.924c2.19,0,3.965-1.775,3.965-3.965
		v-42.924c0-2.189-1.775-3.965-3.965-3.965h-42.924c-2.19,0-3.965,1.775-3.965,3.965V218.011z"/>
	<path display="inline" fill="#269EAB" d="M-78.975,218.011c0,2.19,1.775,3.965,3.965,3.965h42.924c2.19,0,3.965-1.775,3.965-3.965
		v-42.924c0-2.189-1.775-3.965-3.965-3.965H-75.01c-2.189,0-3.965,1.775-3.965,3.965V218.011z"/>
</g>
<g id="Layer_3">
	<circle fill="#FFFFFF" cx="-1134.837" cy="-591.71" r="48.748"/>
	<circle fill="#FFFFFF" cx="-1019.837" cy="-591.71" r="48.748"/>
	<defs>
		
		
			<inkscape:perspective  id="perspective2464" inkscape:vp_x="0 : 526.18109 : 1" sodipodi:type="inkscape:persp3d" inkscape:vp_z="744.09448 : 526.18109 : 1" inkscape:vp_y="0 : 1000 : 0" inkscape:persp3d-origin="372.04724 : 350.78739 : 1">
			</inkscape:perspective>
	</defs>
	
		<sodipodi:namedview  id="base" inkscape:cx="62.945852" inkscape:cy="315.05995" pagecolor="#ffffff" bordercolor="#666666" borderopacity="1.0" inkscape:zoom="1.1420137" inkscape:window-y="-4" inkscape:window-x="-4" inkscape:window-height="712" inkscape:window-width="1024" inkscape:current-layer="layer2" inkscape:document-units="px" inkscape:pageshadow="2" inkscape:pageopacity="0.0">
		</sodipodi:namedview>
	<g>
		<rect x="8" y="168" fill="#EEAA1C" width="145" height="145"/>
		<text transform="matrix(1 0 0 1 16.6719 298.2305)" fill="#FFFFFF" font-family="'BebasNeueBold'" font-size="28.7185">KTM KOMUTER</text>
		<g>
			<path fill="#FFFFFF" d="M26.864,236.545l2.827,7.982h-3.732l-2.222-7.162h-0.064l-1.251,7.162h-3.28l2.654-15.275h3.279
				l-1.1,6.408h0.065l4.315-6.408h3.819L26.864,236.545z"/>
			<path fill="#FFFFFF" d="M40.585,232.079h-2.804l-2.179,12.449h-3.28l2.179-12.449h-2.805l0.496-2.826h8.89L40.585,232.079z"/>
			<path fill="#FFFFFF" d="M53.531,244.527h-3.258l1.963-10.615h-0.065l-4.488,10.615h-2.374l-0.69-10.615h-0.065l-1.748,10.615
				h-2.999l2.676-15.275h4.164l0.734,9.99h0.086l4.164-9.99h4.574L53.531,244.527z"/>
			<path fill="#FFFFFF" d="M68.223,236.545l2.827,7.982h-3.732l-2.222-7.162h-0.065l-1.251,7.162H60.5l2.654-15.275h3.279
				l-1.1,6.408h0.065l4.315-6.408h3.819L68.223,236.545z"/>
			<path fill="#FFFFFF" d="M84.469,234.732c0,1.252-0.166,2.485-0.497,3.701c-0.331,1.215-0.802,2.305-1.413,3.269
				c-0.61,0.963-1.359,1.74-2.243,2.33c-0.885,0.59-1.881,0.884-2.989,0.884c-0.776,0-1.471-0.141-2.082-0.42
				c-0.611-0.281-1.125-0.677-1.543-1.187c-0.417-0.512-0.733-1.123-0.949-1.834c-0.216-0.712-0.324-1.507-0.324-2.385
				c0-1.251,0.163-2.488,0.486-3.711c0.324-1.222,0.791-2.315,1.403-3.28c0.61-0.962,1.359-1.743,2.243-2.34
				c0.885-0.597,1.888-0.895,3.01-0.895c0.82,0,1.535,0.14,2.147,0.421c0.611,0.28,1.122,0.679,1.531,1.197s0.715,1.137,0.917,1.855
				C84.368,233.057,84.469,233.855,84.469,234.732z M81.039,235.207c0-0.401-0.029-0.798-0.087-1.187
				c-0.057-0.388-0.154-0.726-0.291-1.014s-0.32-0.521-0.549-0.701c-0.231-0.18-0.518-0.27-0.864-0.27
				c-0.547,0-1.032,0.223-1.456,0.668c-0.424,0.446-0.781,1.008-1.068,1.684c-0.288,0.676-0.503,1.41-0.647,2.201
				c-0.143,0.792-0.215,1.524-0.215,2.2c0,0.403,0.032,0.785,0.097,1.145c0.065,0.359,0.166,0.672,0.303,0.938
				c0.136,0.266,0.323,0.474,0.561,0.625c0.237,0.151,0.528,0.228,0.874,0.228c0.518,0,0.985-0.208,1.402-0.626
				c0.417-0.417,0.77-0.95,1.058-1.597c0.287-0.648,0.506-1.352,0.658-2.114S81.039,235.897,81.039,235.207z"/>
			<path fill="#FFFFFF" d="M98.774,244.527h-3.258l1.963-10.615h-0.064l-4.488,10.615h-2.373l-0.691-10.615h-0.064l-1.748,10.615
				h-2.999l2.676-15.275h4.164l0.734,9.99h0.087l4.164-9.99h4.573L98.774,244.527z"/>
			<path fill="#FFFFFF" d="M112.496,238.875c-0.158,0.849-0.367,1.64-0.626,2.373c-0.258,0.734-0.611,1.374-1.057,1.92
				c-0.446,0.547-1,0.976-1.661,1.285c-0.662,0.309-1.475,0.463-2.438,0.463c-0.777,0-1.454-0.107-2.028-0.322
				c-0.576-0.217-1.053-0.519-1.435-0.908c-0.381-0.387-0.666-0.844-0.852-1.369c-0.188-0.524-0.281-1.104-0.281-1.737
				c0-0.258,0.011-0.531,0.032-0.819c0.022-0.288,0.061-0.583,0.119-0.885l1.683-9.623h3.345l-1.641,9.364
				c-0.043,0.244-0.078,0.485-0.107,0.723c-0.029,0.238-0.043,0.457-0.043,0.657c0,0.504,0.104,0.921,0.312,1.251
				c0.208,0.331,0.578,0.497,1.11,0.497c0.375,0,0.691-0.083,0.95-0.249c0.258-0.165,0.475-0.388,0.647-0.668
				c0.172-0.281,0.316-0.612,0.431-0.993c0.115-0.381,0.208-0.788,0.281-1.219l1.618-9.364h3.322L112.496,238.875z"/>
			<path fill="#FFFFFF" d="M123.584,232.079h-2.804l-2.179,12.449h-3.28l2.179-12.449h-2.805l0.496-2.826h8.89L123.584,232.079z"/>
			<path fill="#FFFFFF" d="M132.107,232.165h-3.992l-0.561,3.172h3.732l-0.475,2.719h-3.711l-0.604,3.495h4.358l-0.518,2.977h-7.53
				l2.654-15.275h7.141L132.107,232.165z"/>
			<path fill="#FFFFFF" d="M143.629,233.18c0,1.165-0.263,2.144-0.788,2.934c-0.525,0.791-1.227,1.337-2.104,1.64l1.705,6.774
				h-3.496l-1.273-6.148h-1.122l-1.057,6.148h-3.193l2.654-15.275h4.487c1.353,0,2.388,0.328,3.107,0.982
				C143.269,230.888,143.629,231.871,143.629,233.18z M140.328,233.611c0-0.589-0.158-1-0.475-1.229
				c-0.317-0.23-0.677-0.345-1.078-0.345h-1.123l-0.69,3.991h1.079c0.632,0,1.171-0.201,1.618-0.604
				C140.104,235.021,140.328,234.417,140.328,233.611z"/>
		</g>
		<g>
			<polygon fill="#FFFFFF" points="79.98,209.394 52.841,225.914 143.108,225.914 145.174,217.653 88.24,217.653 97.09,209.394 			
				"/>
		</g>
		<g>
			<polygon fill="#FFFFFF" points="79.98,263.493 107.12,246.973 16.852,246.973 14.787,255.233 71.721,255.233 62.871,263.493 			
				"/>
		</g>
	</g>
</g>
</svg>
