<?xml version="1.0" encoding="utf-8"?>
<!-- Generator: Adobe Illustrator 16.0.0, SVG Export Plug-In . SVG Version: 6.00 Build 0)  -->
<!DOCTYPE svg PUBLIC "-//W3C//DTD SVG 1.1//EN" "http://www.w3.org/Graphics/SVG/1.1/DTD/svg11.dtd">
<svg version="1.1" xmlns="http://www.w3.org/2000/svg" xmlns:xlink="http://www.w3.org/1999/xlink" x="0px" y="0px" width="320px"
	 height="480px" viewBox="0 0 320 480" enable-background="new 0 0 320 480" xml:space="preserve">
<g id="Layer_1" display="none">
	<rect display="inline" stroke="#000000" stroke-miterlimit="10" width="320" height="480"/>
	<path display="inline" fill="#F06821" d="M-135.695,104.569c0,2.19,1.775,3.965,3.965,3.965h42.924c2.19,0,3.965-1.775,3.965-3.965
		V61.645c0-2.19-1.775-3.965-3.965-3.965h-42.924c-2.19,0-3.965,1.775-3.965,3.965V104.569z"/>
	<path display="inline" fill="#139E46" d="M-78.975,104.569c0,2.19,1.775,3.965,3.965,3.965h42.924c2.19,0,3.965-1.775,3.965-3.965
		V61.645c0-2.19-1.775-3.965-3.965-3.965H-75.01c-2.189,0-3.965,1.775-3.965,3.965V104.569z"/>
	<path display="inline" fill="#EEAA1C" d="M-135.695,161.29c0,2.19,1.775,3.965,3.965,3.965h42.924c2.19,0,3.965-1.775,3.965-3.965
		v-42.924c0-2.19-1.775-3.965-3.965-3.965h-42.924c-2.19,0-3.965,1.775-3.965,3.965V161.29z"/>
	<path display="inline" fill="#1674AC" d="M-78.975,161.29c0,2.19,1.775,3.965,3.965,3.965h42.924c2.19,0,3.965-1.775,3.965-3.965
		v-42.924c0-2.19-1.775-3.965-3.965-3.965H-75.01c-2.189,0-3.965,1.775-3.965,3.965V161.29z"/>
	<path display="inline" fill="#FF3641" d="M-135.695,218.011c0,2.19,1.775,3.965,3.965,3.965h42.924c2.19,0,3.965-1.775,3.965-3.965
		v-42.924c0-2.189-1.775-3.965-3.965-3.965h-42.924c-2.19,0-3.965,1.775-3.965,3.965V218.011z"/>
	<path display="inline" fill="#269EAB" d="M-78.975,218.011c0,2.19,1.775,3.965,3.965,3.965h42.924c2.19,0,3.965-1.775,3.965-3.965
		v-42.924c0-2.189-1.775-3.965-3.965-3.965H-75.01c-2.189,0-3.965,1.775-3.965,3.965V218.011z"/>
</g>
<g id="Layer_3">
	<circle fill="#FFFFFF" cx="-1134.837" cy="-591.71" r="48.748"/>
	<circle fill="#FFFFFF" cx="-1019.837" cy="-591.71" r="48.748"/>
	<defs>
		
		
			<inkscape:perspective  id="perspective2464" inkscape:vp_x="0 : 526.18109 : 1" sodipodi:type="inkscape:persp3d" inkscape:vp_z="744.09448 : 526.18109 : 1" inkscape:vp_y="0 : 1000 : 0" inkscape:persp3d-origin="372.04724 : 350.78739 : 1">
			</inkscape:perspective>
	</defs>
	
		<sodipodi:namedview  id="base" inkscape:cx="62.945852" inkscape:cy="315.05995" pagecolor="#ffffff" bordercolor="#666666" borderopacity="1.0" inkscape:zoom="1.1420137" inkscape:window-y="-4" inkscape:window-x="-4" inkscape:window-height="712" inkscape:window-width="1024" inkscape:current-layer="layer2" inkscape:document-units="px" inkscape:pageshadow="2" inkscape:pageopacity="0.0">
		</sodipodi:namedview>
	<g>
		<rect x="8" y="11" fill="#139E46" width="145" height="145"/>
		<text transform="matrix(1 0 0 1 22.0312 141.2305)" fill="#FFFFFF" font-family="'BebasNeueBold'" font-size="28.7185">KLIA TRANSIT</text>
		<g>
			<circle fill="#FFFFFF" cx="74.998" cy="21.951" r="3.869"/>
			<circle fill="#FFFFFF" cx="84.949" cy="21.951" r="3.869"/>
			<path fill="#FFFFFF" d="M98.399,27.112H61.364c-7.328,0-13.267,4.927-13.267,11.007v48.922c0,6.082,5.939,11.008,13.267,11.008
				h37.036c7.328,0,13.267-4.927,13.267-11.008V38.119C111.667,32.039,105.727,27.112,98.399,27.112z M72.024,29.69H87.92
				c1.426,0,2.582,1.155,2.582,2.58c0,1.424-1.156,2.581-2.582,2.581H72.024c-1.424,0-2.58-1.156-2.58-2.581
				C69.445,30.845,70.6,29.69,72.024,29.69z M58.603,43.814c0-4.237,3.434-7.674,7.673-7.674H93.67c4.238,0,7.675,3.437,7.675,7.674
				v10.698c0,4.236-3.437,7.673-7.675,7.673H66.276c-4.239,0-7.673-3.437-7.673-7.673V43.814z M61.734,91.233
				c-3.866,0-7-3.136-7-7.002s3.135-7.002,7-7.002c3.869,0,7.003,3.136,7.003,7.002S65.603,91.233,61.734,91.233z M98.218,91.233
				c-3.867,0-7.001-3.136-7.001-7.002s3.134-7.002,7.001-7.002c3.868,0,7.002,3.136,7.002,7.002S102.085,91.233,98.218,91.233z"/>
			<rect x="64.311" y="99.709" fill="#FFFFFF" width="31.324" height="3.315"/>
			<rect x="94.713" y="103.024" fill="#FFFFFF" width="16.953" height="3.317"/>
			<rect x="48.281" y="103.024" fill="#FFFFFF" width="17.136" height="3.317"/>
		</g>
	</g>
</g>
</svg>
