<?xml version="1.0" encoding="utf-8"?>
<!-- Generator: Adobe Illustrator 16.0.0, SVG Export Plug-In . SVG Version: 6.00 Build 0)  -->
<!DOCTYPE svg PUBLIC "-//W3C//DTD SVG 1.1//EN" "http://www.w3.org/Graphics/SVG/1.1/DTD/svg11.dtd">
<svg version="1.1" xmlns="http://www.w3.org/2000/svg" xmlns:xlink="http://www.w3.org/1999/xlink" x="0px" y="0px" width="320px"
	 height="480px" viewBox="0 0 320 480" enable-background="new 0 0 320 480" xml:space="preserve">
<g id="Layer_1" display="none">
	<rect display="inline" stroke="#000000" stroke-miterlimit="10" width="320" height="480"/>
	<path display="inline" fill="#F06821" d="M-135.695,104.569c0,2.19,1.775,3.965,3.965,3.965h42.924c2.19,0,3.965-1.775,3.965-3.965
		V61.645c0-2.19-1.775-3.965-3.965-3.965h-42.924c-2.19,0-3.965,1.775-3.965,3.965V104.569z"/>
	<path display="inline" fill="#139E46" d="M-78.975,104.569c0,2.19,1.775,3.965,3.965,3.965h42.924c2.19,0,3.965-1.775,3.965-3.965
		V61.645c0-2.19-1.775-3.965-3.965-3.965H-75.01c-2.189,0-3.965,1.775-3.965,3.965V104.569z"/>
	<path display="inline" fill="#EEAA1C" d="M-135.695,161.29c0,2.19,1.775,3.965,3.965,3.965h42.924c2.19,0,3.965-1.775,3.965-3.965
		v-42.924c0-2.19-1.775-3.965-3.965-3.965h-42.924c-2.19,0-3.965,1.775-3.965,3.965V161.29z"/>
	<path display="inline" fill="#1674AC" d="M-78.975,161.29c0,2.19,1.775,3.965,3.965,3.965h42.924c2.19,0,3.965-1.775,3.965-3.965
		v-42.924c0-2.19-1.775-3.965-3.965-3.965H-75.01c-2.189,0-3.965,1.775-3.965,3.965V161.29z"/>
	<path display="inline" fill="#FF3641" d="M-135.695,218.011c0,2.19,1.775,3.965,3.965,3.965h42.924c2.19,0,3.965-1.775,3.965-3.965
		v-42.924c0-2.189-1.775-3.965-3.965-3.965h-42.924c-2.19,0-3.965,1.775-3.965,3.965V218.011z"/>
	<path display="inline" fill="#269EAB" d="M-78.975,218.011c0,2.19,1.775,3.965,3.965,3.965h42.924c2.19,0,3.965-1.775,3.965-3.965
		v-42.924c0-2.189-1.775-3.965-3.965-3.965H-75.01c-2.189,0-3.965,1.775-3.965,3.965V218.011z"/>
</g>
<g id="Layer_3">
	<circle fill="#FFFFFF" cx="-1134.837" cy="-591.71" r="48.748"/>
	<circle fill="#FFFFFF" cx="-1019.837" cy="-591.71" r="48.748"/>
	<g>
		<rect x="166" y="11" fill="#F06821" width="145" height="145"/>
		<g>
			<path fill="#FFFFFF" d="M172.667,94.791v11.704h56.349l2.16-2.301h33.088l1.832,2.301h34.326l-2.411-2.791
				c0,0,8.989-1.06,4.228-8.913H172.667z"/>
			<path fill="#FFFFFF" d="M301.867,94.208c-3.513-5.284-12.984-13.457-34.536-26.062c-11.613-6.793-38.565-11.176-38.565-11.176
				h-56.099v37.237H301.867z M275.058,75.507c15.29,9.774,9.057,9.643,0.729,9.496c-8.326-0.146-8.18-4.09-12.399-12.418
				C259.168,64.258,275.058,75.507,275.058,75.507z M206.244,70.541c0-0.968,0.786-1.753,1.754-1.753h22.646
				c0.969,0,1.754,0.785,1.754,1.753v12.71c0,0.968-0.785,1.752-1.754,1.752h-22.646c-0.968,0-1.754-0.784-1.754-1.752V70.541z
				 M176.295,70.541c0-0.968,0.785-1.753,1.755-1.753h22.644c0.969,0,1.754,0.785,1.754,1.753v12.71
				c0,0.968-0.785,1.752-1.754,1.752H178.05c-0.97,0-1.755-0.784-1.755-1.752V70.541z"/>
		</g>
		<text transform="matrix(1 0 0 1 177.6719 141.2305)" fill="#FFFFFF" font-family="'BebasNeueBold'" font-size="28.7185">KLIA EKSPRES</text>
	</g>
	<defs>
		
		
			<inkscape:perspective  id="perspective2464" inkscape:vp_x="0 : 526.18109 : 1" sodipodi:type="inkscape:persp3d" inkscape:vp_z="744.09448 : 526.18109 : 1" inkscape:vp_y="0 : 1000 : 0" inkscape:persp3d-origin="372.04724 : 350.78739 : 1">
			</inkscape:perspective>
	</defs>
	
		<sodipodi:namedview  id="base" inkscape:cx="62.945852" inkscape:cy="315.05995" pagecolor="#ffffff" bordercolor="#666666" borderopacity="1.0" inkscape:zoom="1.1420137" inkscape:window-y="-4" inkscape:window-x="-4" inkscape:window-height="712" inkscape:window-width="1024" inkscape:current-layer="layer2" inkscape:document-units="px" inkscape:pageshadow="2" inkscape:pageopacity="0.0">
		</sodipodi:namedview>
</g>
</svg>
