<?xml version="1.0" encoding="utf-8"?>
<!-- Generator: Adobe Illustrator 16.0.0, SVG Export Plug-In . SVG Version: 6.00 Build 0)  -->
<!DOCTYPE svg PUBLIC "-//W3C//DTD SVG 1.1//EN" "http://www.w3.org/Graphics/SVG/1.1/DTD/svg11.dtd">
<svg version="1.1" xmlns="http://www.w3.org/2000/svg" xmlns:xlink="http://www.w3.org/1999/xlink" x="0px" y="0px" width="320px"
	 height="480px" viewBox="0 0 320 480" enable-background="new 0 0 320 480" xml:space="preserve">
<g id="Layer_1" display="none">
	<rect display="inline" stroke="#000000" stroke-miterlimit="10" width="320" height="480"/>
	<path display="inline" fill="#F06821" d="M-135.695,104.569c0,2.19,1.775,3.965,3.965,3.965h42.924c2.19,0,3.965-1.775,3.965-3.965
		V61.645c0-2.19-1.775-3.965-3.965-3.965h-42.924c-2.19,0-3.965,1.775-3.965,3.965V104.569z"/>
	<path display="inline" fill="#139E46" d="M-78.975,104.569c0,2.19,1.775,3.965,3.965,3.965h42.924c2.19,0,3.965-1.775,3.965-3.965
		V61.645c0-2.19-1.775-3.965-3.965-3.965H-75.01c-2.189,0-3.965,1.775-3.965,3.965V104.569z"/>
	<path display="inline" fill="#EEAA1C" d="M-135.695,161.29c0,2.19,1.775,3.965,3.965,3.965h42.924c2.19,0,3.965-1.775,3.965-3.965
		v-42.924c0-2.19-1.775-3.965-3.965-3.965h-42.924c-2.19,0-3.965,1.775-3.965,3.965V161.29z"/>
	<path display="inline" fill="#1674AC" d="M-78.975,161.29c0,2.19,1.775,3.965,3.965,3.965h42.924c2.19,0,3.965-1.775,3.965-3.965
		v-42.924c0-2.19-1.775-3.965-3.965-3.965H-75.01c-2.189,0-3.965,1.775-3.965,3.965V161.29z"/>
	<path display="inline" fill="#FF3641" d="M-135.695,218.011c0,2.19,1.775,3.965,3.965,3.965h42.924c2.19,0,3.965-1.775,3.965-3.965
		v-42.924c0-2.189-1.775-3.965-3.965-3.965h-42.924c-2.19,0-3.965,1.775-3.965,3.965V218.011z"/>
	<path display="inline" fill="#269EAB" d="M-78.975,218.011c0,2.19,1.775,3.965,3.965,3.965h42.924c2.19,0,3.965-1.775,3.965-3.965
		v-42.924c0-2.189-1.775-3.965-3.965-3.965H-75.01c-2.189,0-3.965,1.775-3.965,3.965V218.011z"/>
</g>
<g id="Layer_3">
	<circle fill="#FFFFFF" cx="-1134.837" cy="-591.71" r="48.748"/>
	<circle fill="#FFFFFF" cx="-1019.837" cy="-591.71" r="48.748"/>
	<g>
		<rect x="166" y="11" fill="#F06821" width="145" height="145"/>
		<g>
			<path fill="#FFFFFF" d="M172.667,94.791v11.704h56.349l2.16-2.301h33.088l1.832,2.301h34.326l-2.411-2.791
				c0,0,8.989-1.06,4.228-8.913H172.667z"/>
			<path fill="#FFFFFF" d="M301.867,94.208c-3.513-5.284-12.984-13.457-34.536-26.062c-11.613-6.793-38.565-11.176-38.565-11.176
				h-56.099v37.237H301.867z M275.058,75.507c15.29,9.774,9.057,9.643,0.729,9.496c-8.326-0.146-8.18-4.09-12.399-12.418
				C259.168,64.258,275.058,75.507,275.058,75.507z M206.244,70.541c0-0.968,0.786-1.753,1.754-1.753h22.646
				c0.969,0,1.754,0.785,1.754,1.753v12.71c0,0.968-0.785,1.752-1.754,1.752h-22.646c-0.968,0-1.754-0.784-1.754-1.752V70.541z
				 M176.295,70.541c0-0.968,0.785-1.753,1.755-1.753h22.644c0.969,0,1.754,0.785,1.754,1.753v12.71
				c0,0.968-0.785,1.752-1.754,1.752H178.05c-0.97,0-1.755-0.784-1.755-1.752V70.541z"/>
		</g>
		<text transform="matrix(1 0 0 1 177.6719 141.2305)" fill="#FFFFFF" font-family="'BebasNeueBold'" font-size="28.7185">KLIA EKSPRES</text>
	</g>
	<defs>
		
		
			<inkscape:perspective  id="perspective2464" inkscape:vp_x="0 : 526.18109 : 1" sodipodi:type="inkscape:persp3d" inkscape:vp_z="744.09448 : 526.18109 : 1" inkscape:vp_y="0 : 1000 : 0" inkscape:persp3d-origin="372.04724 : 350.78739 : 1">
			</inkscape:perspective>
	</defs>
	
		<sodipodi:namedview  id="base" inkscape:cx="62.945852" inkscape:cy="315.05995" pagecolor="#ffffff" bordercolor="#666666" borderopacity="1.0" inkscape:zoom="1.1420137" inkscape:window-y="-4" inkscape:window-x="-4" inkscape:window-height="712" inkscape:window-width="1024" inkscape:current-layer="layer2" inkscape:document-units="px" inkscape:pageshadow="2" inkscape:pageopacity="0.0">
		</sodipodi:namedview>
	<g>
		<rect x="8" y="11" fill="#139E46" width="145" height="145"/>
		<text transform="matrix(1 0 0 1 22.0312 141.2305)" fill="#FFFFFF" font-family="'BebasNeueBold'" font-size="28.7185">KLIA TRANSIT</text>
		<g>
			<circle fill="#FFFFFF" cx="74.998" cy="21.951" r="3.869"/>
			<circle fill="#FFFFFF" cx="84.949" cy="21.951" r="3.869"/>
			<path fill="#FFFFFF" d="M98.399,27.112H61.364c-7.328,0-13.267,4.927-13.267,11.007v48.922c0,6.082,5.939,11.008,13.267,11.008
				h37.036c7.328,0,13.267-4.927,13.267-11.008V38.119C111.667,32.039,105.727,27.112,98.399,27.112z M72.024,29.69H87.92
				c1.426,0,2.582,1.155,2.582,2.58c0,1.424-1.156,2.581-2.582,2.581H72.024c-1.424,0-2.58-1.156-2.58-2.581
				C69.445,30.845,70.6,29.69,72.024,29.69z M58.603,43.814c0-4.237,3.434-7.674,7.673-7.674H93.67c4.238,0,7.675,3.437,7.675,7.674
				v10.698c0,4.236-3.437,7.673-7.675,7.673H66.276c-4.239,0-7.673-3.437-7.673-7.673V43.814z M61.734,91.233
				c-3.866,0-7-3.136-7-7.002s3.135-7.002,7-7.002c3.869,0,7.003,3.136,7.003,7.002S65.603,91.233,61.734,91.233z M98.218,91.233
				c-3.867,0-7.001-3.136-7.001-7.002s3.134-7.002,7.001-7.002c3.868,0,7.002,3.136,7.002,7.002S102.085,91.233,98.218,91.233z"/>
			<rect x="64.311" y="99.709" fill="#FFFFFF" width="31.324" height="3.315"/>
			<rect x="94.713" y="103.024" fill="#FFFFFF" width="16.953" height="3.317"/>
			<rect x="48.281" y="103.024" fill="#FFFFFF" width="17.136" height="3.317"/>
		</g>
	</g>
	<g>
		<rect x="166" y="168" fill="#1674AC" width="145" height="145"/>
		<text transform="matrix(1 0 0 1 183.6719 298.2305)" fill="#FFFFFF" font-family="'BebasNeueBold'" font-size="28.7185">LRT RAPIDKL</text>
		<g>
			<path fill="#FFFFFF" d="M283.029,174.184v45.213c0,0-41.562-1.825-44.933,44.02h-44.933
				C193.164,263.417,188.671,182.995,283.029,174.184z"/>
			<polygon fill="#1674AC" points="212.366,217.747 209.102,217.747 211.208,211.429 214.473,211.429 			"/>
			<polygon fill="#1674AC" points="242.833,217.737 239.568,217.737 241.675,211.418 244.939,211.418 			"/>
			<polygon fill="#1674AC" points="245.194,210.708 241.93,210.708 242.254,209.252 245.519,209.252 			"/>
			<polygon fill="#1674AC" points="227.162,217.747 223.898,217.747 226.004,211.429 228.516,213.688 			"/>
			<path fill="#1674AC" d="M214.026,212.766c0,0-0.488-1.337,1.675-1.337c1.066,0,3.159-0.484,2.387,1.337H214.026z"/>
			<path fill="#1674AC" d="M228.516,213.688c0,0,0.862-2.376-0.388-2.318c-1.25,0.059-8.425-0.001-8.425-0.001
				s-0.701-0.066-0.843,0.699h6.931l-0.19,1.62h-5.476c0,0-4.002,0.408-2.528,4.059c0,0,7.438,0.35,7.161-0.702
				c-0.275-1.051,0.491-0.772,0.491-0.772s-0.562,1.194-5.194,0.492c0,0-0.562-1.691,0.842-2.18h4.704L228.516,213.688z"/>
			<polygon fill="#1674AC" points="258.431,208.901 261.842,208.901 258.721,217.75 255.31,217.75 			"/>
			<polygon fill="#1674AC" points="271.374,208.901 274.786,208.901 271.665,217.75 268.253,217.75 			"/>
			<polygon fill="#1674AC" points="267.303,208.901 259.51,213.326 259.51,215.079 269.9,208.901 			"/>
			<polygon fill="#1674AC" points="267.654,217.809 265.127,211.367 261.842,212.833 263.582,217.737 			"/>
			<polygon fill="#1674AC" points="271.52,216.483 278.256,216.483 277.693,217.737 271.095,217.737 			"/>
			<path fill="#1674AC" d="M254.188,208.901l-0.976,2.891c-0.92-0.365-2.894-0.681-7.027-0.012c0,0-3.23,5.195-1.686,5.967
				l8.987,0.062l0.005-0.059h0.975l2.986-8.849H254.188z M253.136,213.438l-0.772,3.67c0,0-2.177,0.007-3.721,0
				s-1.123-0.698-1.123-0.698l1.406-3.788c0,0,0.84-0.421,2.595-0.281C253.276,212.482,253.136,213.438,253.136,213.438z"/>
			<path fill="#1674AC" d="M239.712,211.429l-8.986-0.062l-0.006,0.059h-0.974l-2.987,8.849h3.265l0.976-2.891
				c0.921,0.365,2.894,0.681,7.028,0.012C238.027,217.396,241.257,212.201,239.712,211.429z M236.693,212.766l-1.406,3.788
				c0,0-0.841,0.421-2.596,0.281s-1.614-1.096-1.614-1.096l0.771-3.67c0,0,2.177-0.007,3.721,0
				C237.114,212.075,236.693,212.766,236.693,212.766z"/>
		</g>
	</g>
	<g>
		<rect x="8" y="168" fill="#EEAA1C" width="145" height="145"/>
		<text transform="matrix(1 0 0 1 16.6719 298.2305)" fill="#FFFFFF" font-family="'BebasNeueBold'" font-size="28.7185">KTM KOMUTER</text>
		<g>
			<path fill="#FFFFFF" d="M26.864,236.545l2.827,7.982h-3.732l-2.222-7.162h-0.064l-1.251,7.162h-3.28l2.654-15.275h3.279
				l-1.1,6.408h0.065l4.315-6.408h3.819L26.864,236.545z"/>
			<path fill="#FFFFFF" d="M40.585,232.079h-2.804l-2.179,12.449h-3.28l2.179-12.449h-2.805l0.496-2.826h8.89L40.585,232.079z"/>
			<path fill="#FFFFFF" d="M53.531,244.527h-3.258l1.963-10.615h-0.065l-4.488,10.615h-2.374l-0.69-10.615h-0.065l-1.748,10.615
				h-2.999l2.676-15.275h4.164l0.734,9.99h0.086l4.164-9.99h4.574L53.531,244.527z"/>
			<path fill="#FFFFFF" d="M68.223,236.545l2.827,7.982h-3.732l-2.222-7.162h-0.065l-1.251,7.162H60.5l2.654-15.275h3.279
				l-1.1,6.408h0.065l4.315-6.408h3.819L68.223,236.545z"/>
			<path fill="#FFFFFF" d="M84.469,234.732c0,1.252-0.166,2.485-0.497,3.701c-0.331,1.215-0.802,2.305-1.413,3.269
				c-0.61,0.963-1.359,1.74-2.243,2.33c-0.885,0.59-1.881,0.884-2.989,0.884c-0.776,0-1.471-0.141-2.082-0.42
				c-0.611-0.281-1.125-0.677-1.543-1.187c-0.417-0.512-0.733-1.123-0.949-1.834c-0.216-0.712-0.324-1.507-0.324-2.385
				c0-1.251,0.163-2.488,0.486-3.711c0.324-1.222,0.791-2.315,1.403-3.28c0.61-0.962,1.359-1.743,2.243-2.34
				c0.885-0.597,1.888-0.895,3.01-0.895c0.82,0,1.535,0.14,2.147,0.421c0.611,0.28,1.122,0.679,1.531,1.197s0.715,1.137,0.917,1.855
				C84.368,233.057,84.469,233.855,84.469,234.732z M81.039,235.207c0-0.401-0.029-0.798-0.087-1.187
				c-0.057-0.388-0.154-0.726-0.291-1.014s-0.32-0.521-0.549-0.701c-0.231-0.18-0.518-0.27-0.864-0.27
				c-0.547,0-1.032,0.223-1.456,0.668c-0.424,0.446-0.781,1.008-1.068,1.684c-0.288,0.676-0.503,1.41-0.647,2.201
				c-0.143,0.792-0.215,1.524-0.215,2.2c0,0.403,0.032,0.785,0.097,1.145c0.065,0.359,0.166,0.672,0.303,0.938
				c0.136,0.266,0.323,0.474,0.561,0.625c0.237,0.151,0.528,0.228,0.874,0.228c0.518,0,0.985-0.208,1.402-0.626
				c0.417-0.417,0.77-0.95,1.058-1.597c0.287-0.648,0.506-1.352,0.658-2.114S81.039,235.897,81.039,235.207z"/>
			<path fill="#FFFFFF" d="M98.774,244.527h-3.258l1.963-10.615h-0.064l-4.488,10.615h-2.373l-0.691-10.615h-0.064l-1.748,10.615
				h-2.999l2.676-15.275h4.164l0.734,9.99h0.087l4.164-9.99h4.573L98.774,244.527z"/>
			<path fill="#FFFFFF" d="M112.496,238.875c-0.158,0.849-0.367,1.64-0.626,2.373c-0.258,0.734-0.611,1.374-1.057,1.92
				c-0.446,0.547-1,0.976-1.661,1.285c-0.662,0.309-1.475,0.463-2.438,0.463c-0.777,0-1.454-0.107-2.028-0.322
				c-0.576-0.217-1.053-0.519-1.435-0.908c-0.381-0.387-0.666-0.844-0.852-1.369c-0.188-0.524-0.281-1.104-0.281-1.737
				c0-0.258,0.011-0.531,0.032-0.819c0.022-0.288,0.061-0.583,0.119-0.885l1.683-9.623h3.345l-1.641,9.364
				c-0.043,0.244-0.078,0.485-0.107,0.723c-0.029,0.238-0.043,0.457-0.043,0.657c0,0.504,0.104,0.921,0.312,1.251
				c0.208,0.331,0.578,0.497,1.11,0.497c0.375,0,0.691-0.083,0.95-0.249c0.258-0.165,0.475-0.388,0.647-0.668
				c0.172-0.281,0.316-0.612,0.431-0.993c0.115-0.381,0.208-0.788,0.281-1.219l1.618-9.364h3.322L112.496,238.875z"/>
			<path fill="#FFFFFF" d="M123.584,232.079h-2.804l-2.179,12.449h-3.28l2.179-12.449h-2.805l0.496-2.826h8.89L123.584,232.079z"/>
			<path fill="#FFFFFF" d="M132.107,232.165h-3.992l-0.561,3.172h3.732l-0.475,2.719h-3.711l-0.604,3.495h4.358l-0.518,2.977h-7.53
				l2.654-15.275h7.141L132.107,232.165z"/>
			<path fill="#FFFFFF" d="M143.629,233.18c0,1.165-0.263,2.144-0.788,2.934c-0.525,0.791-1.227,1.337-2.104,1.64l1.705,6.774
				h-3.496l-1.273-6.148h-1.122l-1.057,6.148h-3.193l2.654-15.275h4.487c1.353,0,2.388,0.328,3.107,0.982
				C143.269,230.888,143.629,231.871,143.629,233.18z M140.328,233.611c0-0.589-0.158-1-0.475-1.229
				c-0.317-0.23-0.677-0.345-1.078-0.345h-1.123l-0.69,3.991h1.079c0.632,0,1.171-0.201,1.618-0.604
				C140.104,235.021,140.328,234.417,140.328,233.611z"/>
		</g>
		<g>
			<polygon fill="#FFFFFF" points="79.98,209.394 52.841,225.914 143.108,225.914 145.174,217.653 88.24,217.653 97.09,209.394 			
				"/>
		</g>
		<g>
			<polygon fill="#FFFFFF" points="79.98,263.493 107.12,246.973 16.852,246.973 14.787,255.233 71.721,255.233 62.871,263.493 			
				"/>
		</g>
	</g>
	<g>
		<rect x="8" y="325" fill="#FF3641" width="145" height="145"/>
		<rect x="123" y="325" fill="#FF3641" width="188" height="145"/>
		<text transform="matrix(1 0 0 1 55.1484 454.2305)" fill="#FFFFFF" font-family="'BebasNeueBold'" font-size="28.7185">PUBLIC TRANSPORT Map</text>
		<g id="layer2" inkscape:label="default" inkscape:groupmode="layer">
			<path id="PLS" sodipodi:nodetypes="cccssscssccc" fill="#FFFFFF" d="M88.082,340.839c0.784-0.679,1.96-2.153,2.94-3.23
				c-0.354-0.082-0.685-0.182-0.944-0.347c0,0-0.176-1.411-0.561-1.474c-0.384-0.062-1.712-0.138-1.889,0.094
				c-0.218,0.286-0.213,2.276-0.35,2.385c-0.225,0.179-0.385,0.283-0.385,0.283s0.035,1.129,0.106,1.19
				c0.07,0.063,0.475,0.682,0.524,0.755c0.088,0.128-0.209,0.406-0.209,0.406l0.594,0.158L88.082,340.839z"/>
			<g id="PNG" transform="matrix(0.753837,0,0,0.675887,-11.99227,-149.5214)">
				<path id="path8677" fill="#FFFFFF" d="M135.226,736.622c0,0-0.067,2.036-0.034,2.362c0.034,0.328,0.82,1.542,0.689,1.706
					c-0.132,0.165-0.132,1.774-0.461,1.871c-0.328,0.1-0.425,0.591-0.261,0.526c0.164-0.065,1.969-0.098,2.199-0.591
					c0.229-0.491,0.165-4.07,0.165-4.07s0.197-1.279,0.13-1.542c-0.066-0.263-0.656-0.591-0.656-0.591s-1.051-0.163-1.248-0.098
					C135.553,736.26,135.226,736.424,135.226,736.622z"/>
				<path id="path8679" fill="#FFFFFF" d="M132.369,737.376c1.346,0,1.707,0.231,1.707,0.231s0.428,1.019,0.394,1.247
					c-0.034,0.23,0.459,0.951,0.098,1.182c-0.361,0.228-1.672,0.887-1.903,0.722c-0.231-0.166-0.296-1.02-0.296-1.02
					S132.007,738.13,132.369,737.376z"/>
			</g>
			<g id="KDH" transform="matrix(0.753837,0,0,0.675887,-11.54021,-149.2118)">
				<path id="path3437" sodipodi:nodetypes="cccsssscscssssccssccccccccccccc" fill="#FFFFFF" d="M132.247,725.513l4.223-5.199
					l0.418-0.046c0,0,2.043,0.928,2.367,1.02c0.326,0.092,0.788-0.743,1.206-0.835c0.419-0.091,0.837,0.835,0.837,0.743
					s0.88,0.511,0.974,0.65c0.093,0.14,0.371,2.508,0.371,2.508s1.532-0.049,1.578-0.373c0.047-0.325,0.883,0.373,0.883,0.373
					s0.974-0.049,1.115,0c0.139,0.046,0.788,1.02,0.277,1.901c-0.509,0.881,0.558,0.045,0.094,1.672
					c-0.464,1.624,1.474,1.371-0.789,2.598c-1.309,0.709-0.376,0.118-0.902,1.799l-0.412,1.003c0,0-0.499,1.331-0.825,1.471
					c-0.094,0.039,0.187,0.647,0.278,1.066c0.052,0.225-1.436,2.195-1.436,2.195c-1.095,1.046-1.873,1.459-2.737,2.043l-0.883,2.089
					c-0.37,0.221-0.744,0.334-1.115,0.185c-0.261-0.048-0.466-0.214-0.603-0.51l0.187-1.16c-0.016-1.302-0.165-2.198-0.047-3.9
					l0.094-0.743c-0.051-0.176-0.082-0.353-0.976-0.652c-0.672-0.155-1.343-0.309-1.533,0.14c-0.573-0.244-0.811-0.996-1.159-1.578
					l0.464-1.345C134.196,732.629,134.845,729.227,132.247,725.513z"/>
				<path id="path8683" fill="#FFFFFF" d="M124.449,721.987c-0.373,0.462-0.464-0.186-0.373,0.556
					c0.094,0.743,0.558,2.135,0.558,2.135l0.464,0.185l1.021-0.371l1.205-0.091l0.374-0.744l0.277-0.835l-0.371-0.559
					c0,0-0.65-0.835-1.205-0.835c-0.558,0-0.744,0.28-0.744,0.28L124.449,721.987z"/>
			</g>
			<path id="MLK" sodipodi:nodetypes="ccccccccccccsc" fill="#FFFFFF" d="M109.427,381.875c0.536,0.231,1.073,0.682,1.609,1.066
				c1.081,0.252,1.896,0.576,3.709,1.318l0.63-0.94l0.21-0.188l-0.28-0.628c0.062-0.691,0.399-1.381,0.629-2.071
				c-1.042-0.385-1.593-0.659-1.891-0.878l-1.12,0.189l-1.33-0.189l-1.12,0.126l-1.049,0.438c0,0-0.723,0.614-0.63,0.943
				C108.938,381.562,109.497,382.001,109.427,381.875z"/>
			<path id="JHR" sodipodi:nodetypes="cccccssscccccccccccccccccccccsscsccccccccc" fill="#FFFFFF" d="M118.167,386.526
				c0.596,0.173,0.578,0.857,0.98,0.742l0.426,0.442c0.205,0.167,0.507,0.19,0.911,0.062l2.269,1.243c0,0,2.209,0.64,2.28,0.953
				c0.069,0.313,0.629,2.446,1.399,2.384c0.77-0.061,2.029-1.758,3.569-1.882c1.538-0.124,1.241,0.103,1.241,0.103l0.803,0.193
				l0.248-1.168c0.228-0.08,0.479-0.479,0.646,0.264l-0.337,0.357l0.338,0.627c0.097,0.397,0.371,0.527,0.662,0.632
				c0.431,0.633,1.061,0.117,1.609,0.064c0.408-0.557,0.715-1.281,0.528-2.013c-0.403-1.332-1.093-2.343-1.751-3.389
				c-1.306-3.047-1.299-3.003-0.699-1.569c-0.295-0.627-0.638-1.254-1.261-1.883c-0.309-1.32-0.979-1.942-1.679-2.51
				c0.096-0.425,0.324-0.755-0.21-1.632c-0.478,0.068-0.312-0.268-0.614-0.413c-1.186-0.549-1.052-0.256-1.436-0.42
				c-0.332,0.136-0.548,0.608-0.68,1.337c0.399,0.364,0.485,0.451,0.634,0.593c-0.08,0.137-0.253,0.344-0.572,0.266
				c-1.869-1.321-1.775-1.021-2.664-1.531c-0.575,0.093-0.727,0.062-2.387,0.782c-0.391-0.194-1.543-0.712-1.624-0.744
				c-0.687-0.296-1.252-1.058-1.718-1.496c-0.637-0.597-1.114-0.837-1.677-0.756c-0.103,0.389-0.449,0.707-0.587,1.048
				c-0.29,0.706-0.399,1.438-0.787,1.927c0.063,0.474-0.131,0.665-0.194,0.916l0.494,0.299l-0.678,2.026l0.268,0.763l-0.952,1.337
				l0.618,0.64l0.588,0.282C116.615,386.008,116.849,386.821,118.167,386.526z"/>
			<path id="NSN" sodipodi:nodetypes="ccccccccccccccccccccccccccccccccccc" fill="#FFFFFF" d="M108.373,380.941
				c-0.62-0.008-0.923,0.054-1.076-0.119c-0.04-0.299-0.21-0.711-0.53-1.261l-0.104-0.486c-0.302-0.119-0.565-0.204-0.774-0.241
				l0.034-0.391l0.337-0.811l0.168-0.75l-0.101-1.05l1.785-0.422c0.09-0.559,0.293-0.917,0.471-1.319v-0.149l0.104-0.427
				c-0.013-0.438-0.025-0.877-0.037-1.316l0.236-0.269c0.763-0.062,0.875,0.223,1.213,0.391l0.37,0.149l0.506,0.061
				c0.325,0.013,0.65,0.113,0.977,0.209c0.504-0.073,1.01,0.24,1.516,0.391c0.552,0.427,1.412,0.907,1.549,1.261
				c0.975,0.62,1.364,0.758,1.875,1.128l0.448,0.339l-0.303,0.274c-0.228,0.271-0.518,0.456-0.573,0.961l-0.404,1.23l-0.335,0.659
				l-0.204,0.901l-0.64-0.121l-0.773-0.479l-1.179,0.209l-1.247-0.149l-1.111,0.121c-0.545,0.111-0.878,0.319-1.246,0.511
				C108.865,380.295,108.46,380.705,108.373,380.941z"/>
			<path id="SGR" fill="#FFFFFF" d="M96.379,365.848l-1.056,0.187l-0.171,0.187l-0.139,0.155l0.277,0.349l0.982,0.625l1.43,1.13
				l0.178,0.722l0.625,0.691c0,0,1.91,1.795,1.999,1.909c0,0.001,0,0.006,0,0.008c0.031,0.106,0.519,1.349,0.527,1.633
				c0,0.004,0.001,0.012,0,0.017c-0.002,0.001-0.006,0.006-0.008,0.007c0,0.003,0,0.008,0,0.01
				c-0.023,0.227,0.285,0.779,0.285,0.779s-0.142,0.618-0.349,0.812c-0.21,0.189-0.593,0.406-0.593,0.406v0.724l0.561,0.35
				l0.803,0.22c0,0,1.22,0.751,1.324,1.347c0,0,1.51,0.595,1.86,0.626c0.269,0.023,0.516-0.025,0.601-0.064
				c0.001,0,0.007-0.009,0.009-0.009h0.007c0.002-0.001,0.008-0.008,0.009-0.009v-0.006c0-0.004,0-0.008,0-0.01l0.487-0.966
				l0.146-0.724l-0.106-1.072v-0.187l1.924-0.471l0.276-1l0.18-0.626v-1.632l0.275-0.317l-1.186-0.088l-0.805-0.942l-0.284-0.349
				l0.245-0.441l-0.245-0.56l0.351-0.909c0,0-0.069-0.379-0.351-0.723c-0.279-0.346-0.667-0.691-0.667-0.691l-0.307-0.162
				l-0.634,0.064l-0.731,0.603l-0.315,0.088l-0.635-0.22l-1.227-0.754l-0.381,0.064l-0.073,0.689l-0.17,0.22h-0.423l-0.909-0.154
				l-1.43-0.471l-0.35-0.154h-0.561l-0.561-0.413l-0.39-0.374L96.379,365.848z M105.784,370.998
				c0.084,0.102,0.068,0.197,0.189,0.381c0.043,0.068,0.109,0.265,0.146,0.324c0.162,0.236,0.191,0.364,0.245,0.513
				c0.136,1.441-0.549,1.142-0.96,0.91c-0.374-0.76-0.416-1.097-0.479-1.544C105.108,371.127,105.564,371.082,105.784,370.998z
				 M106.103,373.679l0.683,0.332l0.527,0.65l-0.244,0.194l-0.763,0.324l-0.642-0.229v-0.94L106.103,373.679z"/>
			
				<path id="PRK" sodipodi:nodetypes="ccscccsccsccccccccccccccccccscccccccscccsccccccccccccccccccccccccccccccccccccccccccccc" fill="#FFFFFF" d="
				M94.976,365.97l-0.84-0.377c0,0-0.35-1.255-0.246-1.38c0.106-0.126,0.175-0.157,0.175-0.157l0.386-0.188l-0.106-0.658
				c0,0-0.874-0.534-1.084-0.409c-0.211,0.126-0.734-0.689-0.734-0.689l-0.42-0.941c0,0,0.664-1.82,0.525-2.321
				c-0.14-0.502-0.35-0.784-0.35-0.784v-0.377c0,0,0.561-1.914-1.295-2.697l-0.629-0.502l-0.455-1.475l0.49-0.064l1.33-0.25
				l0.559,0.221h0.805l0.35-0.346c0.013-0.419-0.041-0.838,0.525-1.256c0.629-0.407,1.26-0.814,1.889-1.223
				c0.63-0.503,1.051-1.255,1.576-1.883l-0.246-0.816l0.526-0.878l0.314-0.815l0.49,0.471l0.489,0.378c0,0,0.666-0.096,0.77-0.252
				c0.104-0.158,0.386-1.131,0.386-1.131s1.224-0.47,1.259-0.282l0.909-0.627c0.433,0.317,0.986-0.12,1.505-0.345l0.561,0.062
				c0.652,0.169,0.99,0.691,1.084,1.191l-0.455,0.347c0,0-0.071,0.094,0.104,0.282c0.176,0.188,0.246,0.941,0.246,0.941
				c0.055,0.762,0.001,1.023-0.036,1.786l0.525,0.22c0.264,0.048,0.095,1.167-0.175,1.194c-0.098,0.009-0.945-0.064-0.945-0.064
				L104.178,350l-0.35,0.408l-0.104,0.408l-0.386,0.062l-0.384,1.036l-0.071,1.254l-0.455,0.534l-0.035,0.564l0.244,0.438
				l-0.315,0.439l-0.175,0.533l-0.733,1.005c0,0-0.211,0.659,0.069,1.255l0.351,0.249l-0.105,0.535l-0.175,0.626
				c-0.306,0.269,0.033,0.433,0.49,0.689c0.128,0,0.257,0,0.385,0c0.104,0.347,0.209,0.692,0.315,1.036
				c0.104,0.137,0.21,0.273,0.314,0.409c0.024,0.137,0.047,0.271,0.069,0.407c0.119,0.167,0.235,0.335,0.351,0.503
				c0.118,0.134,0.234,0.271,0.35,0.406c0.104,0.073,0.21,0.147,0.314,0.22c-0.012,0.198-0.023,0.397-0.035,0.597
				c0,0.304,0,0.607,0,0.91c0.082,0.346,0.163,0.689,0.245,1.035l0.28,1.161l-0.84,0.532c0,0-1.854-0.753-1.784-0.972l-0.84,0.156
				c0.144,0.479-0.013,0.596-0.14,0.754c0,0-0.594-0.095-0.594-0.222l-0.35,0.063l-0.594-0.124l-0.736-0.221l-0.209-0.251h-0.595
				h-0.384l-0.35-0.533l-0.175-0.156l-0.561-0.127l-1.013,0.158L94.976,365.97z"/>
			<path id="KTN" sodipodi:nodetypes="ccccccccccccccccccccccscccccccccccccccccccccccccccccccccccccccccc" fill="#FFFFFF" d="
				M105.402,345.577l0.665-0.472l0.666,0.283c0.353-0.252,1.138-0.503,0.979-0.752c0.316-0.517,0.04-0.908,0.106-1.35l1.714-1.287
				l-0.035-0.752l0.314-0.252l0.315-0.377l0.736,0.125l1.539,0.157l0.561,0.44l0.804,0.658c0.209-0.027,1.231,1.952,1.015,2.165
				l0.734,0.659l-0.559,0.312c-0.366,0.239-0.759,0.534-1.4,1.35l0.07,0.974l0.244,0.47l-0.314,0.689c0,0,0.594,1.319,0.385,2.667
				c0,0,0.14,0.66,1.084,1.224c0,0,0,1.537,0.14,1.789c0.142,0.252,1.33,1.004,1.33,1.004l0.175,0.722l-0.594,0.532h-0.7
				l-0.56,0.032c0,0-1.82-0.816-1.891,0.533l-1.47,0.062l-1.048-1.224c-0.558,0.145-1.19,0.521-1.576,0.125l-0.314,0.064
				l-0.245,0.312v0.659l-0.282-0.125l-0.523-0.534l-0.596-0.502l-0.315,0.252l-0.279,1.067l-0.595,0.531l-0.945,0.502l-0.979-0.469
				l-0.805,0.375l-0.665-0.345l-0.49-0.063l-0.246-0.531v-0.378l0.736-0.909l0.208-0.597l0.457-0.407l0.069-0.471l-0.244-0.345
				l0.104-0.378l0.701-2.665l1.049-1.005h0.979l0.386-0.031l0.419-1.035l-0.035-0.503l-0.665-0.345c0,0,0.071-1.035-0.034-1.161
				l-0.035-0.533l0.104-0.533L105.402,345.577z"/>
			<path id="TRG" sodipodi:nodetypes="ccccccccccccccscsccccccccccccccccccccccc" fill="#FFFFFF" d="M115.796,344.979l0.874,0.504
				l0.734,0.815l1.295,0.909l1.541,0.722l1.294,1.004c0.46,0.383,0.858,0.934,1.226,1.569c0.492,0.862,0.844,1.285,1.503,2.666
				c0.597,0.834,1.354,1.631,1.609,2.541c0.305,1.809,0.32,3.619,0.35,5.429l-0.454,0.972l-1.434-0.03
				c-0.277,0.17-0.491,0.395-0.49,0.814l0.036,1.381c0,0,0,0.534-0.14,0.534c-0.141,0-0.979-1.193-0.979-1.193
				c-0.338,0.114-1.302-0.714-1.505-0.722c-1.206-0.041-0.444,0.229-1.505,0.157l-0.175-0.47c-0.17,0.037-0.08-1.826,1.295-2.605
				l-0.49-0.816l-1.013,0.033l-0.211-0.251l0.036-1.914l-0.457-0.313l-0.524-0.096h-0.489l-0.665-0.438l-0.106-0.597l-0.28-0.658
				l-1.119-0.785c0,0-0.279-0.909-0.279-1.726l-0.84-0.878l-0.14-0.847l-0.071-1.254l-0.314-0.754l0.35-0.784l-0.35-0.753
				l0.035-0.595C113.941,346.551,115.06,345.013,115.796,344.979z"/>
			
				<path id="PHG" sodipodi:nodetypes="cccccccccccccccccccccccccccccccccccccccccccccccccccccccccccsccccccccccccccccccccccccccccccccccccccccccccccccccccc" fill="#FFFFFF" d="
				M127.845,377.339l-1.335-1.153l-0.545-1.155l0.049-0.932l0.051-1.419v-0.577c0,0-0.248-1.995,0.296-2.973l-1.436-1.819
				l-0.048-0.755l0.197-0.576l0.1-0.887l0.545-0.577v-0.488l-0.101-0.488l-0.197-0.621l0.297-0.621h-1.288l-0.247,0.398
				l-0.098,2.264l-0.396,0.222l-0.445-0.31l-0.595-0.888l-0.643-0.355l-0.743-0.444l-0.593,0.045l-0.544,0.178l-0.644-0.134
				l-0.296-0.486v-0.266l0.149-0.979c0,0,0.544-1.419,1.137-1.642l-0.396-0.532l-0.841,0.09l-0.544-0.311v-0.576l0.1-1.243
				l-0.198-0.443l-0.941-0.046l-0.445-0.177l-0.396-0.266l-0.544,0.311l-0.396,0.267l-0.446-0.045l-0.296,0.045l-1.336-0.312
				l-0.396,0.09l-0.049,0.487l-0.543,0.222h-0.892l-0.643-0.089l-0.743-0.754l-0.248-0.312l-1.038,0.223h-0.645v0.488l-0.197,0.576
				l-0.347-0.088l-0.593-0.401l-0.396-0.442c0,0-0.247-0.62-0.247-0.266c0,0.355,0,0.932,0,0.932l-0.693,0.577l-0.595,0.399
				l-0.743,0.221h-0.642l-0.545-0.311l-0.692,0.4l-0.693-0.311l-0.247,1.242l0.544,0.31l0.296-0.044l-0.049,0.488l0.743,1.509
				l0.396,0.665l0.544,0.487v0.712l-0.05,0.886l0.347,1.332l0.248,0.664l0.693,0.045l0.494,0.266l0.645,0.843l0.346,0.755
				l-0.297,0.756l0.099,0.888l0.1,0.397l0.444,0.621l0.496,0.222h0.94l0.446,0.354l0.742,0.223l0.446,0.312l1.139,0.132l0.692,0.045
				l0.544,0.178l0.496,0.089l0.593,0.398l0.892,0.755l3.316,2.174l0.741,0.443l0.446,0.267l0.396,0.443l0.592,0.666l0.595,0.4
				l1.436,0.576l2.127-0.711l0.841,0.044l0.693,0.488l1.039,0.756v-0.178l-0.05-0.622l0.397-0.532L127.845,377.339z"/>
			<path id="LBN" fill="#FFFFFF" d="M191.236,374.466l-0.348,0.312l-0.444,0.932l0.398,0.4l0.394,0.266l0.693-0.443l0.444-0.445
				l-0.197-0.709l-0.347-0.312H191.236z"/>
			<g id="SBH" transform="translate(-3.588813e-6,3.205593e-6)">
				
					<path id="path20951" sodipodi:nodetypes="ccccccccccccccccccccscccccccccccccccccccccccccccccccccccccccccccccccccccccccccccccccccccccccccccccccccccccccccccccccccccccccccccccccccccccccccccccccccccccccccccccccccccccccccccccccccccccccccccccccc" fill="#FFFFFF" d="
					M193.957,379.125l2.078,0.267l0.396,0.798l0.101,0.621v0.711l-0.893,0.621l-0.197,0.711v1.153l0.099,0.798l1.088,0.976
					l0.101,0.532l-0.298,0.445l-0.101,0.53l0.695,0.267l0.691-0.267h0.594l0.298-0.399l0.544-0.531l0.051-0.532l1.186,0.443
					c0,0-0.047,0.268,0.15,0.268s0.645,0,0.645,0l1.235-0.756h1.532l0.497-0.176l1.286,1.019l0.988-0.888l0.792,0.223l0.744-0.089
					l0.939-0.044l1.188,0.222h1.14l0.889-0.089l1.586,0.133l0.541-0.044l0.841,0.178l1.09,0.486l0.497,0.623l1.533,0.088
					l0.443-0.044l0.247-0.311l0.05-0.755l0.051-0.755l0.544-0.31l0.892,0.71l-0.791,0.089l-0.498,0.443l0.298,0.488l1.089,0.177
					h0.795h1.135l-0.05-0.397l-0.344-0.268l0.988,0.177h0.645l1.532-0.266l2.625-0.443l1.089-0.267h0.641l0.444-0.266l0.795-0.888
					l-0.544-0.933l-0.941-0.221l-0.298-0.531l-0.69-0.401l-0.792-0.266l-0.795-0.355l-1.136-1.685l-0.05-0.311l0.595-0.444
					l1.432-0.577l0.595,0.71l0.892,0.046h0.791h0.792l0.495,0.131l0.594-0.355l2.722-0.842l2.97-0.755l0.544-0.62l0.149-0.578
					l-0.049-1.642l-0.495-0.531l-0.297-0.399h-1.83l-1.386-0.045l-0.447-0.443l-1.14-0.533l-0.791-0.442l-1.039-0.843l-0.595-0.399
					l-1.385-0.755l-1.039-0.312l-1.236-0.265l-1.137-0.046l-0.298,0.178l-0.147,0.577l-0.248,0.354l-0.693,0.222l-0.545-0.044
					l-0.544-0.133l-0.051-0.311l0.842-0.133l0.545-0.044l0.446-0.311v-0.401l-0.249-0.975l-0.692-0.888l-0.444-0.444l-0.841,0.49
					l-0.447,0.397l-0.395,0.044l-0.347,0.091l-0.596,0.088v0.488l-0.444,0.089h-0.442l-0.398-0.223l0.444-0.621v-0.399v-0.576
					l-0.297-0.532l-0.246-0.356l0.297-0.354l1.038-0.266l-0.047-2.395l-0.595-0.445l-0.544-0.222l-0.494-0.31l-0.745-0.976
					l-0.494,0.088l-0.544,0.754l-0.348-0.266l-0.691-0.488h-0.595l-0.246-0.4V360.4l-0.298-0.354l-0.248-0.267l0.198-0.754
					l-0.051-0.532l-0.246-0.355l-0.643-0.221h-0.693l-0.692,0.131l-0.297,0.269l-0.445,0.62l0.198,0.665l-0.1,0.532l-0.444,0.443
					l-0.448,0.801l-0.64,0.266l-0.546,0.311l-0.15-0.178l0.298-0.933l0.347-0.664l-0.396-0.533l0.199-1.021l-0.493-0.709
					l-0.397-0.046l-0.545,0.134l-0.645,0.488v0.399l-0.443,0.266c0,0-0.444,1.686-0.348,1.952c0,0-1.335,1.065-1.433,1.331
					c0,0,0.839,0.486-2.03,1.996l-0.494,1.332l-0.645-0.09l-0.544,0.09l-0.248,0.62l-0.644,0.443l-0.098,0.533l0.098,0.267
					l-0.048,0.443l-0.544,1.332l-0.297,0.843l-0.495,0.177l-0.694,0.311l-0.147,0.533l-0.346,1.153l-0.596,0.487h-1.235h-1.88
					l-0.841,0.354l-0.645,0.622l-0.495,0.754l-0.247,0.71v0.355l0.545,0.31l0.741,0.577l0.543,0.267l0.299,0.4l-0.197,0.398
					l-0.201,0.621l-0.841,0.443L193.957,379.125z"/>
				<path id="path20955" fill="#FFFFFF" d="M212.468,355.02l0.139,1.757l0.628,0.094l0.809-0.377l0.767-0.407l0.421-0.094
					l0.071-0.784l-0.071-0.848l-0.421-0.22l-0.417-0.062l-1.158,0.44L212.468,355.02z"/>
			</g>
			<path id="SRW" fill="#FFFFFF" d="M193.362,379.125l0.745,0.445h1.383l0.251,0.309l0.246,0.268l0.098,0.487l0.05,0.577
				l-0.692,0.532l-0.049,0.443l-0.149,0.354l-0.147,0.622l-0.05,0.754l0.05,0.888l0.493,0.53l0.842,0.534l-0.197,0.488l-0.247,0.621
				l0.048,0.399l0.497,0.577l0.197,0.044l0.246,0.087l-0.246,1.066l-0.595,0.977l0.297,0.531v0.443l-0.347,0.932l0.149,0.712
				l-0.149,0.222l0.347,0.664l-0.101,0.4l0.201,0.532l-0.101,0.621l-0.645,0.355l-0.394,1.864l0.298,0.664l-0.15,0.489l-0.792,0.708
				c0,0,0.298,0.311,0,0.355c-0.297,0.044-1.038,0.269-1.038,0.269h-0.595l-0.494-0.048l-0.645,0.179l-0.594,0.488l-0.445,0.534
				l-0.444,0.576v0.708l-0.15,0.621l0.745,0.445l0.792,0.31l0.097,0.488l-0.097,0.755l-0.792,0.442l-0.398,0.044l-0.841,0.799
				l-0.741,0.179l-0.447,0.267v0.531l-0.889,0.221h-0.694l-0.247,0.889l0.397,0.443v0.354l0.594,0.312l-0.247,0.399l-0.051,1.153
				c0,0-0.246,0.488-0.446,0.488c-0.198,0-0.843,0.311-0.843,0.311l-0.246,0.976l0.05,0.443l-0.741,0.932l-0.347,0.4l-0.298,0.354
				l-0.197,0.978c0,0-0.196,0.132-0.494,0.176c-0.297,0.044-0.744-0.132-0.99-0.222c-0.248-0.089-1.138-0.531-1.138-0.531
				l-1.04,0.354l-1.089,0.354l-1.681-0.222l-1.14,0.178l-0.594,0.575l-1.089,0.977l-1.435,0.843l-1.436-0.888l-1.138,0.091
				c0,0-0.841,0-1.04-0.135c-0.197-0.132-0.891-0.576-0.891-0.576l-1.335-0.043c0,0-0.396-0.577-0.643-0.577
				c-0.25,0-0.892,0-0.892,0h-0.396l-0.643-0.4l0.247-0.666l0.544-0.441l-1.483,0.132c0,0-0.348,0.044-0.644,0.133
				c-0.297,0.089-0.495,0.089-0.793,0.089c-0.295,0-1.633-0.089-1.928-0.089c-0.299,0-1.535-0.222-1.535-0.222l-0.545,0.754
				c0,0-1.287,0-1.484,0c-0.198,0-0.793,0.532-0.793,0.532l0.347,0.665l-0.743,0.799l-0.247,1.331l-1.039,0.178l-1.336,0.224
				l-0.644,0.752c0,0-0.544,0.712-0.742,0.667c-0.198-0.044-1.534-0.311-1.534-0.311s-0.445,0.133-0.792,0.177
				c-0.345,0.044-0.792,0.354-0.792,0.354l-0.743-0.265l-0.544,0.133l-0.643,0.044l-1.731-0.888l-2.426,0.665l-1.582,0.09
				l-0.693,0.977l-1.633,0.31l-1.089,0.488c0,0-0.94-0.135-1.286-0.355c-0.347-0.222-0.892-0.442-0.991-0.621
				c-0.098-0.177-0.347-0.577-0.347-0.577l-0.94-0.044l-0.494-0.576l-0.645-1.065l-0.941-0.443l-1.136-0.4l-0.298-0.932
				c0,0-0.594-0.266-0.594-0.442s-0.593-0.268-0.593-0.268h-0.743l-2.326-2.573v-1.375l-0.792-0.443l-0.544-0.798l0.198-0.754
				l1.336-1.11l0.444-0.312l0.05,0.756v0.444l0.594,0.62l1.188,0.443l0.743,0.532l0.692,0.756h1.732h1.485l0.297-0.135v-0.621
				l0.792-0.441l0.05,0.22l0.643,0.267l0.247,0.398l0.94-0.043l0.544,0.088l0.05,0.665l-0.05,0.577l0.792,0.223l1.237,0.309
				l0.348,0.045l0.791-0.22l1.187,0.442l0.792,0.311l-0.346-0.977l0.149-0.531l0.544-0.311l0.593-0.09l-0.048-0.488l0.048-0.576
				l1.584-3.061l-0.693-0.4l0.05-0.486v-0.268v-0.799l0.247-1.375l0.643-0.267l0.545,0.133l1.139,0.576l0.444,0.046l-0.198-0.667
				l-0.098-0.486l0.048-0.267l-0.295-0.355v-0.709l0.197-0.844l0.298-0.266l2.67-1.598l1.881-0.399h1.188l0.693-0.043l9.303-2.087
				l1.979-0.577l0.494-0.488l0.297-0.709l0.248-0.401l2.275-1.773l1.832-3.017l1.138-0.755c0,0,5.147-3.593,5.147-5.546l0.148-1.063
				c0,0-0.148-0.489-0.148-0.711c0-0.221,0.048-0.665,0.048-0.665h1.831l1.634,0.132l0.098,0.623l0.644,0.621l0.743,1.463v0.755
				h1.038l0.101,0.533l0.494,0.532l0.594,0.442l0.546,0.533l0.544,0.088l1.038-0.398l0.298-0.577l0.047-0.843l-0.047-0.931
				l0.642-0.578l-0.792-0.576l0.051-0.844l-0.247-1.42l-0.397-0.487l0.744-0.71l0.938-0.399l1.286-0.266h0.397l0.791,0.752
				l-0.246,0.577l0.049,1.021l0.494,1.376l0.696,0.62l0.492,0.311l1.287,0.31l-0.147-0.797l-0.645-1.153c0,0,0-0.487,0-0.666
				c0-0.178-0.348-1.021-0.348-1.021l-0.691-0.976l-0.447-0.62l-0.096-0.444l0.543-0.488l0.841-0.177l0.545,0.088l0.298,0.266
				l0.444-0.044L193.362,379.125z"/>
			<path id="KUL" fill="#FFFFFF" d="M105.462,371.26l-0.227,0.274l0.019,0.241l-0.019,0.239v0.274l0.263,0.755l0.302,0.087
				l0.283-0.242l0.095-0.514l-0.077-0.36l-0.15-0.292l-0.019-0.326L105.462,371.26z"/>
			<path id="PJY" fill="#FFFFFF" d="M105.821,374.148v0.564l0.443,0.241l0.643-0.241v-0.241l-0.442-0.443L105.821,374.148z"/>
		</g>
	</g>
</g>
</svg>
