<?xml version="1.0" encoding="utf-8"?>
<!-- Generator: Adobe Illustrator 16.0.0, SVG Export Plug-In . SVG Version: 6.00 Build 0)  -->
<!DOCTYPE svg PUBLIC "-//W3C//DTD SVG 1.1//EN" "http://www.w3.org/Graphics/SVG/1.1/DTD/svg11.dtd">
<svg version="1.1" xmlns="http://www.w3.org/2000/svg" xmlns:xlink="http://www.w3.org/1999/xlink" x="0px" y="0px" width="320px"
	 height="480px" viewBox="0 0 320 480" enable-background="new 0 0 320 480" xml:space="preserve">
<g id="Layer_1" display="none">
	<rect display="inline" stroke="#000000" stroke-miterlimit="10" width="320" height="480"/>
	<path display="inline" fill="#F06821" d="M-135.695,104.569c0,2.19,1.775,3.965,3.965,3.965h42.924c2.19,0,3.965-1.775,3.965-3.965
		V61.645c0-2.19-1.775-3.965-3.965-3.965h-42.924c-2.19,0-3.965,1.775-3.965,3.965V104.569z"/>
	<path display="inline" fill="#139E46" d="M-78.975,104.569c0,2.19,1.775,3.965,3.965,3.965h42.924c2.19,0,3.965-1.775,3.965-3.965
		V61.645c0-2.19-1.775-3.965-3.965-3.965H-75.01c-2.189,0-3.965,1.775-3.965,3.965V104.569z"/>
	<path display="inline" fill="#EEAA1C" d="M-135.695,161.29c0,2.19,1.775,3.965,3.965,3.965h42.924c2.19,0,3.965-1.775,3.965-3.965
		v-42.924c0-2.19-1.775-3.965-3.965-3.965h-42.924c-2.19,0-3.965,1.775-3.965,3.965V161.29z"/>
	<path display="inline" fill="#1674AC" d="M-78.975,161.29c0,2.19,1.775,3.965,3.965,3.965h42.924c2.19,0,3.965-1.775,3.965-3.965
		v-42.924c0-2.19-1.775-3.965-3.965-3.965H-75.01c-2.189,0-3.965,1.775-3.965,3.965V161.29z"/>
	<path display="inline" fill="#FF3641" d="M-135.695,218.011c0,2.19,1.775,3.965,3.965,3.965h42.924c2.19,0,3.965-1.775,3.965-3.965
		v-42.924c0-2.189-1.775-3.965-3.965-3.965h-42.924c-2.19,0-3.965,1.775-3.965,3.965V218.011z"/>
	<path display="inline" fill="#269EAB" d="M-78.975,218.011c0,2.19,1.775,3.965,3.965,3.965h42.924c2.19,0,3.965-1.775,3.965-3.965
		v-42.924c0-2.189-1.775-3.965-3.965-3.965H-75.01c-2.189,0-3.965,1.775-3.965,3.965V218.011z"/>
</g>
<g id="Layer_3">
	<circle fill="#FFFFFF" cx="-1134.837" cy="-591.71" r="48.748"/>
	<circle fill="#FFFFFF" cx="-1019.837" cy="-591.71" r="48.748"/>
	<defs>
		
		
			<inkscape:perspective  id="perspective2464" inkscape:vp_x="0 : 526.18109 : 1" sodipodi:type="inkscape:persp3d" inkscape:vp_z="744.09448 : 526.18109 : 1" inkscape:vp_y="0 : 1000 : 0" inkscape:persp3d-origin="372.04724 : 350.78739 : 1">
			</inkscape:perspective>
	</defs>
	
		<sodipodi:namedview  id="base" inkscape:cx="62.945852" inkscape:cy="315.05995" pagecolor="#ffffff" bordercolor="#666666" borderopacity="1.0" inkscape:zoom="1.1420137" inkscape:window-y="-4" inkscape:window-x="-4" inkscape:window-height="712" inkscape:window-width="1024" inkscape:current-layer="layer2" inkscape:document-units="px" inkscape:pageshadow="2" inkscape:pageopacity="0.0">
		</sodipodi:namedview>
	<g>
		<rect x="166" y="168" fill="#1674AC" width="145" height="145"/>
		<text transform="matrix(1 0 0 1 183.6719 298.2305)" fill="#FFFFFF" font-family="'BebasNeueBold'" font-size="28.7185">LRT RAPIDKL</text>
		<g>
			<path fill="#FFFFFF" d="M283.029,174.184v45.213c0,0-41.562-1.825-44.933,44.02h-44.933
				C193.164,263.417,188.671,182.995,283.029,174.184z"/>
			<polygon fill="#1674AC" points="212.366,217.747 209.102,217.747 211.208,211.429 214.473,211.429 			"/>
			<polygon fill="#1674AC" points="242.833,217.737 239.568,217.737 241.675,211.418 244.939,211.418 			"/>
			<polygon fill="#1674AC" points="245.194,210.708 241.93,210.708 242.254,209.252 245.519,209.252 			"/>
			<polygon fill="#1674AC" points="227.162,217.747 223.898,217.747 226.004,211.429 228.516,213.688 			"/>
			<path fill="#1674AC" d="M214.026,212.766c0,0-0.488-1.337,1.675-1.337c1.066,0,3.159-0.484,2.387,1.337H214.026z"/>
			<path fill="#1674AC" d="M228.516,213.688c0,0,0.862-2.376-0.388-2.318c-1.25,0.059-8.425-0.001-8.425-0.001
				s-0.701-0.066-0.843,0.699h6.931l-0.19,1.62h-5.476c0,0-4.002,0.408-2.528,4.059c0,0,7.438,0.35,7.161-0.702
				c-0.275-1.051,0.491-0.772,0.491-0.772s-0.562,1.194-5.194,0.492c0,0-0.562-1.691,0.842-2.18h4.704L228.516,213.688z"/>
			<polygon fill="#1674AC" points="258.431,208.901 261.842,208.901 258.721,217.75 255.31,217.75 			"/>
			<polygon fill="#1674AC" points="271.374,208.901 274.786,208.901 271.665,217.75 268.253,217.75 			"/>
			<polygon fill="#1674AC" points="267.303,208.901 259.51,213.326 259.51,215.079 269.9,208.901 			"/>
			<polygon fill="#1674AC" points="267.654,217.809 265.127,211.367 261.842,212.833 263.582,217.737 			"/>
			<polygon fill="#1674AC" points="271.52,216.483 278.256,216.483 277.693,217.737 271.095,217.737 			"/>
			<path fill="#1674AC" d="M254.188,208.901l-0.976,2.891c-0.92-0.365-2.894-0.681-7.027-0.012c0,0-3.23,5.195-1.686,5.967
				l8.987,0.062l0.005-0.059h0.975l2.986-8.849H254.188z M253.136,213.438l-0.772,3.67c0,0-2.177,0.007-3.721,0
				s-1.123-0.698-1.123-0.698l1.406-3.788c0,0,0.84-0.421,2.595-0.281C253.276,212.482,253.136,213.438,253.136,213.438z"/>
			<path fill="#1674AC" d="M239.712,211.429l-8.986-0.062l-0.006,0.059h-0.974l-2.987,8.849h3.265l0.976-2.891
				c0.921,0.365,2.894,0.681,7.028,0.012C238.027,217.396,241.257,212.201,239.712,211.429z M236.693,212.766l-1.406,3.788
				c0,0-0.841,0.421-2.596,0.281s-1.614-1.096-1.614-1.096l0.771-3.67c0,0,2.177-0.007,3.721,0
				C237.114,212.075,236.693,212.766,236.693,212.766z"/>
		</g>
	</g>
</g>
</svg>
